<svg fill="#ffffff" width="15px" height="15px" viewBox="-0.028 0 0.356 0.356" xmlns="http://www.w3.org/2000/svg" class="cf-icon-svg"><path d="M0.29 0.277v0.009H0.01v-0.009a0.009 0.009 0 0 1 0.009 -0.009h0.009a0.009 0.009 0 0 1 0 -0.001v-0.008a0.009 0.009 0 0 1 0.009 -0.009h0.013V0.134H0.028a0.01 0.01 0 0 1 -0.004 -0.02L0.146 0.062a0.01 0.01 0 0 1 0.008 0L0.276 0.114a0.01 0.01 0 0 1 -0.004 0.02h-0.022v0.115h0.013a0.009 0.009 0 0 1 0.009 0.009v0.008a0.008 0.008 0 0 1 0 0.001h0.009a0.009 0.009 0 0 1 0.009 0.009zM0.071 0.25h0.039V0.155H0.071zm0.007 -0.136h0.143L0.15 0.083zm0.052 0.041v0.095h0.039V0.155zm0.098 0.095V0.155h-0.039v0.095z"/></svg>