<svg width="20px" height="20px" viewBox="0 0 1.063 1.063" version="1.1" xmlns="http://www.w3.org/2000/svg" xmlns:xlink="http://www.w3.org/1999/xlink"><path d="M0.531 0.373c-0.086 0 -0.156 0.07 -0.156 0.156s0.07 0.156 0.156 0.156S0.688 0.616 0.688 0.529s-0.07 -0.156 -0.156 -0.156zm0 0.25c-0.052 0 -0.094 -0.042 -0.094 -0.094s0.042 -0.094 0.094 -0.094 0.094 0.042 0.094 0.094 -0.042 0.094 -0.094 0.094zm0.527 -0.033c0.002 -0.02 0.004 -0.04 0.004 -0.061s-0.001 -0.041 -0.004 -0.061l-0.162 -0.049a0.373 0.373 0 0 0 -0.03 -0.072l0.08 -0.149a0.541 0.541 0 0 0 -0.086 -0.086L0.713 0.193a0.38 0.38 0 0 0 -0.072 -0.03L0.592 0.002c-0.02 -0.002 -0.04 -0.004 -0.061 -0.004s-0.041 0.001 -0.061 0.004L0.422 0.164a0.367 0.367 0 0 0 -0.072 0.03l-0.149 -0.08a0.533 0.533 0 0 0 -0.086 0.086L0.195 0.348a0.378 0.378 0 0 0 -0.03 0.072L0.004 0.469c-0.002 0.02 -0.004 0.04 -0.004 0.061s0.001 0.041 0.004 0.061l0.162 0.049c0.007 0.025 0.017 0.049 0.03 0.072l-0.08 0.148c0.025 0.032 0.054 0.061 0.086 0.086L0.35 0.866c0.023 0.012 0.047 0.022 0.072 0.03l0.049 0.162c0.02 0.002 0.04 0.004 0.061 0.004s0.041 -0.001 0.061 -0.004l0.049 -0.162c0.025 -0.007 0.049 -0.017 0.072 -0.03l0.148 0.08c0.032 -0.025 0.061 -0.054 0.086 -0.086l-0.08 -0.148c0.012 -0.023 0.022 -0.047 0.03 -0.072l0.162 -0.049zm-0.212 -0.002 -0.01 0.032c-0.006 0.021 -0.015 0.041 -0.025 0.06l-0.016 0.03 0.016 0.03 0.059 0.111a0.46 0.46 0 0 1 -0.019 0.019L0.713 0.795l-0.03 0.016a0.319 0.319 0 0 1 -0.06 0.025l-0.032 0.01 -0.01 0.032 -0.036 0.121a0.479 0.479 0 0 1 -0.027 0l-0.036 -0.121 -0.01 -0.032 -0.032 -0.01a0.313 0.313 0 0 1 -0.06 -0.025l-0.03 -0.016 -0.14 0.075a0.502 0.502 0 0 1 -0.019 -0.019l0.075 -0.14 -0.016 -0.03a0.32 0.32 0 0 1 -0.025 -0.06l-0.01 -0.032 -0.153 -0.046a0.318 0.318 0 0 1 0 -0.027l0.153 -0.046 0.01 -0.032c0.006 -0.021 0.015 -0.041 0.025 -0.06l0.016 -0.03L0.191 0.208a0.55 0.55 0 0 1 0.019 -0.019l0.14 0.076 0.03 -0.016c0.019 -0.01 0.039 -0.018 0.06 -0.025l0.032 -0.01 0.01 -0.032 0.036 -0.121L0.531 0.061l0.013 0 0.036 0.121 0.01 0.032 0.032 0.01c0.021 0.006 0.041 0.015 0.06 0.025l0.03 0.016 0.14 -0.075c0.006 0.006 0.013 0.013 0.019 0.019l-0.06 0.111 -0.016 0.03 0.016 0.03c0.01 0.019 0.018 0.039 0.025 0.06l0.01 0.032 0.032 0.01 0.121 0.036 0 0.013c0 0.004 0 0.009 0 0.013l-0.153 0.046z" fill="#ffffff"/></svg>